<svg width="22" height="22" viewBox="0 0 22 22" fill="none" xmlns="http://www.w3.org/2000/svg">
<path fill-rule="evenodd" clip-rule="evenodd" d="M19.0491 2.95076C19.1132 3.01462 19.164 3.09049 19.1986 3.17401C19.2333 3.25754 19.2511 3.34708 19.2511 3.43751C19.2511 3.52794 19.2333 3.61748 19.1986 3.701C19.164 3.78453 19.1132 3.8604 19.0491 3.92426L3.92414 19.0493C3.79505 19.1784 3.61996 19.2509 3.43739 19.2509C3.25483 19.2509 3.07974 19.1784 2.95064 19.0493C2.82155 18.9202 2.74902 18.7451 2.74902 18.5625C2.74902 18.3799 2.82155 18.2049 2.95064 18.0758L18.0756 2.95076C18.1395 2.88673 18.2154 2.83594 18.2989 2.80128C18.3824 2.76662 18.472 2.74878 18.5624 2.74878C18.6528 2.74878 18.7424 2.76662 18.8259 2.80128C18.9094 2.83594 18.9853 2.88673 19.0491 2.95076Z" fill="#1D1D1D"/>
<path fill-rule="evenodd" clip-rule="evenodd" d="M2.95076 2.95076C2.88673 3.01462 2.83594 3.09049 2.80128 3.17401C2.76662 3.25754 2.74878 3.34708 2.74878 3.43751C2.74878 3.52794 2.76662 3.61748 2.80128 3.701C2.83594 3.78453 2.88673 3.8604 2.95076 3.92426L18.0758 19.0493C18.2049 19.1784 18.3799 19.2509 18.5625 19.2509C18.7451 19.2509 18.9202 19.1784 19.0493 19.0493C19.1784 18.9202 19.2509 18.7451 19.2509 18.5625C19.2509 18.3799 19.1784 18.2049 19.0493 18.0758L3.92426 2.95076C3.8604 2.88673 3.78453 2.83594 3.701 2.80128C3.61748 2.76662 3.52794 2.74878 3.43751 2.74878C3.34708 2.74878 3.25754 2.76662 3.17401 2.80128C3.09049 2.83594 3.01462 2.88673 2.95076 2.95076Z" fill="#1D1D1D"/>
</svg>
