<svg width="18" height="18" viewBox="0 0 18 18" fill="none" xmlns="http://www.w3.org/2000/svg">
<g clip-path="url(#clip0_124_1666)">
<path d="M0.566016 0.0596733C0.256641 0.168657 0 0.537798 0 0.878813C0 0.949125 0.0246094 1.08624 0.05625 1.18116C0.108984 1.33936 0.428906 1.66983 3.93398 5.17842L7.75195 8.99991L3.94805 12.8073C1.85977 14.8991 0.119531 16.664 0.0878906 16.7308C-0.0703125 17.0472 0.00351563 17.4796 0.263672 17.7362C0.50625 17.9823 0.836719 18.0562 1.18125 17.9437C1.33945 17.8909 1.66992 17.571 5.175 14.0659L9 10.248L12.825 14.0659C16.3301 17.571 16.6605 17.8909 16.8188 17.9437C17.1633 18.0562 17.4938 17.9823 17.7363 17.7362C17.9824 17.4937 18.0563 17.1632 17.9438 16.8187C17.891 16.6605 17.5711 16.33 14.066 12.8214L10.248 8.99991L14.066 5.17491C17.5711 1.66983 17.891 1.33936 17.9438 1.18116C18.0563 0.836626 17.9824 0.506157 17.7363 0.263578C17.4938 0.0174847 17.1633 -0.0563431 16.8188 0.0561581C16.6605 0.108892 16.3301 0.428814 12.8215 3.93389L9 7.75186L5.175 3.93389C1.66992 0.428814 1.33945 0.108892 1.18125 0.0561581C0.966797 -0.0141544 0.769922 -0.0106392 0.566016 0.0596733Z" fill="#CD4A4A"/>
</g>
<defs>
<clipPath id="clip0_124_1666">
<rect width="18" height="18" fill="white"/>
</clipPath>
</defs>
</svg>
