<svg width="21" height="21" viewBox="0 0 21 21" fill="none" xmlns="http://www.w3.org/2000/svg">
<path d="M13.0193 3.71868C12.5235 3.62707 12.0681 3.94352 11.9737 4.42757C11.8792 4.91161 12.1967 5.3842 12.6791 5.47893C14.1314 5.76207 15.2529 6.88629 15.5371 8.34363C15.618 8.76313 15.9873 9.06917 16.4127 9.06917C16.4697 9.06917 16.5268 9.06397 16.5849 9.05356C17.0673 8.95675 17.3847 8.4852 17.2903 8.00011C16.866 5.82348 15.1906 4.14234 13.0193 3.71868Z" fill="#1D1D1D"/>
<path d="M12.9542 0.0915884C12.7218 0.058278 12.4884 0.126981 12.3027 0.274796C12.1118 0.424693 11.9925 0.641211 11.9666 0.883753C11.9116 1.37404 12.2653 1.81749 12.755 1.87266C16.1317 2.24948 18.7563 4.87997 19.136 8.26722C19.1869 8.72108 19.5676 9.06355 20.022 9.06355C20.0562 9.06355 20.0894 9.06147 20.1236 9.05731C20.3612 9.03128 20.5728 8.91366 20.7222 8.72628C20.8706 8.53891 20.938 8.30574 20.911 8.06736C20.438 3.8411 17.167 0.561058 12.9542 0.0915884Z" fill="#1D1D1D"/>
<path fill-rule="evenodd" clip-rule="evenodd" d="M9.49009 11.5129C13.6454 15.667 14.588 10.8612 17.2337 13.505C19.7844 16.055 21.2504 16.5658 18.0187 19.7966C17.6139 20.1219 15.042 24.0357 6.00349 14.9997C-3.03618 5.9625 0.875349 3.38796 1.20075 2.98328C4.44023 -0.256411 4.9423 1.21811 7.49296 3.76805C10.1387 6.41302 5.3348 7.35876 9.49009 11.5129Z" fill="#1D1D1D"/>
</svg>
