<svg width="204" height="129" viewBox="0 0 204 129" fill="none" xmlns="http://www.w3.org/2000/svg">
<path d="M20.862 68.4492C21.3758 69.3516 21.7617 70.169 22.0198 70.9015C22.275 71.6154 22.3591 72.3037 22.2722 72.9663C22.1746 73.621 21.8587 74.3147 21.3248 75.0475C21.1049 75.3492 20.8752 75.619 20.6358 75.857C20.4042 76.0842 20.1722 76.2781 19.9397 76.4386L18.5012 75.3903C18.7552 75.2455 19.0049 75.0727 19.2501 74.872C19.4846 74.6634 19.7 74.4244 19.8964 74.155C20.1869 73.7563 20.3804 73.3776 20.4768 73.0189C20.5703 72.6416 20.5662 72.251 20.4647 71.847C20.371 71.4322 20.1793 70.9708 19.8896 70.4628L8.06762 68.6531L9.23374 67.0529L17.93 68.4655C18.0368 68.4774 18.1598 68.501 18.299 68.5364C18.4274 68.564 18.5612 68.5955 18.7003 68.6309C18.8473 68.6556 18.9811 68.6871 19.1017 68.7254L19.1488 68.6608C19.0969 68.5735 19.0343 68.4783 18.9608 68.3753C18.8845 68.2537 18.8096 68.1414 18.7362 68.0384C18.6598 67.9168 18.5957 67.8123 18.5439 67.725L14.1691 60.2804L15.2881 58.7449L20.862 68.4492Z" fill="#1D1D1D"/>
<path d="M27.2158 50.748C27.9107 51.4296 28.248 52.1901 28.2278 53.0294C28.1981 53.8594 27.8809 54.6969 27.2762 55.5419L27.3334 55.5979C28.2879 54.8532 29.194 54.4626 30.0516 54.4261C30.9092 54.3895 31.676 54.7027 32.3518 55.3656C32.9515 55.9538 33.3304 56.6243 33.4885 57.377C33.6371 58.1204 33.5411 58.9228 33.2006 59.7841C32.8601 60.6454 32.2416 61.5329 31.3453 62.4467C30.8038 62.9988 30.2428 63.485 29.6623 63.9055C29.1006 64.3258 28.505 64.6474 27.8754 64.8703L26.7046 63.7219C27.1369 63.5669 27.5687 63.3741 28.0002 63.1437C28.4315 62.8944 28.8438 62.6264 29.237 62.3398C29.6207 62.0438 29.9666 61.7387 30.2747 61.4246C31.1711 60.5108 31.6766 59.6526 31.7914 58.8501C31.9156 58.0381 31.6636 57.3239 31.0353 56.7077C30.3881 56.0728 29.6461 55.8867 28.8095 56.1493C27.9729 56.412 27.0691 57.0383 26.0981 58.0282L24.6696 59.4846L23.5988 58.4342L24.9572 57.0492C25.6201 56.3734 26.0902 55.7419 26.3674 55.1546C26.6539 54.5579 26.7665 54.0146 26.7052 53.5249C26.6437 53.0164 26.4226 52.5754 26.0419 52.2019C25.5279 51.6978 24.9461 51.5007 24.2966 51.6106C23.6471 51.7206 23.0236 52.0802 22.426 52.6894C21.8005 53.3272 21.3585 53.9396 21.1002 54.5266C20.8512 55.1042 20.6591 55.7189 20.524 56.3708L19.0508 56.1304C19.1124 55.6678 19.235 55.1905 19.4188 54.6984C19.6025 54.1875 19.8568 53.6712 20.1817 53.1495C20.5067 52.6278 20.9073 52.1242 21.3834 51.6388C22.1024 50.9058 22.814 50.3992 23.5185 50.119C24.2322 49.8293 24.9056 49.7426 25.5384 49.8591C26.1617 49.9662 26.7208 50.2625 27.2158 50.748Z" fill="#1D1D1D"/>
<path d="M46.8987 48.8317L45.4545 49.9061L41.4791 44.5627L35.6062 48.9321L39.5816 54.2755L38.1375 55.3499L29.6136 43.893L31.0578 42.8185L34.6631 47.6645L40.536 43.2951L36.9306 38.4492L38.3748 37.3747L46.8987 48.8317Z" fill="#1D1D1D"/>
<path d="M59.3409 41.8083L55.7872 38.6674L50.756 41.2603L51.2698 45.968L49.652 46.8018L48.0427 31.4988L49.4827 30.7566L60.9943 40.9562L59.3409 41.8083ZM51.1729 34.3855C51.0885 34.309 50.9406 34.1677 50.7294 33.9615C50.5182 33.7554 50.3039 33.5434 50.0865 33.3254C49.8749 33.0894 49.7088 32.9126 49.5881 32.7948C49.651 33.0623 49.711 33.3389 49.7682 33.6244C49.8311 33.892 49.8789 34.1449 49.9116 34.383C49.9562 34.615 49.9914 34.8144 50.0173 34.981L50.5564 39.5632L54.5742 37.4925L51.1729 34.3855Z" fill="#1D1D1D"/>
<path d="M67.932 38.3441L66.2308 38.9323L62.0805 26.9296L57.8654 28.3871L57.3491 26.8939L67.4616 23.3972L67.9779 24.8904L63.7817 26.3414L67.932 38.3441Z" fill="#1D1D1D"/>
<path d="M76.1892 35.6747L73.5285 21.6447L75.297 21.3094L76.4224 27.2436L79.0554 26.7443C80.3654 26.4958 81.4404 26.4752 82.2804 26.6823C83.1203 26.8894 83.7677 27.262 84.2226 27.8C84.6775 28.338 84.9757 28.9803 85.1173 29.727C85.2738 30.5523 85.2205 31.3088 84.9574 31.9966C84.7074 32.6818 84.2413 33.2656 83.5592 33.7478C82.8771 34.23 81.9596 34.5804 80.8069 34.799L76.1892 35.6747ZM80.3431 33.3195C81.4828 33.1034 82.3011 32.731 82.798 32.2025C83.2924 31.6609 83.4563 30.9513 83.2899 30.0736C83.1756 29.471 82.9409 29.0202 82.5856 28.7211C82.2409 28.4065 81.7786 28.2228 81.1986 28.1699C80.6317 28.1146 79.9421 28.1639 79.1299 28.3179L76.713 28.7763L77.6707 33.8263L80.3431 33.3195Z" fill="#1D1D1D"/>
<path d="M102.914 32.8968L104.361 18.6903L112.797 19.5498L112.637 21.1217L105.992 20.4447L105.539 24.8817L107.649 25.0966C109.068 25.2412 110.151 25.5324 110.897 25.9703C111.644 26.3949 112.139 26.9278 112.382 27.5691C112.627 28.1971 112.709 28.9024 112.629 29.685C112.541 30.5472 112.293 31.2725 111.885 31.8608C111.49 32.4504 110.897 32.8725 110.107 33.1271C109.317 33.3817 108.306 33.4462 107.072 33.3205L102.914 32.8968ZM107.049 31.7702C108.322 31.8999 109.239 31.7789 109.8 31.4071C110.362 31.0221 110.688 30.3852 110.779 29.4965C110.841 28.8863 110.764 28.3893 110.549 28.0055C110.348 27.6097 109.977 27.3039 109.436 27.088C108.908 26.8734 108.187 26.7195 107.272 26.6262L105.381 26.4337L104.86 31.5472L107.049 31.7702Z" fill="#1D1D1D"/>
<path d="M130.296 30.683C130.005 31.7508 129.605 32.6853 129.097 33.4866C128.592 34.2749 127.984 34.9108 127.272 35.394C126.573 35.8807 125.779 36.1828 124.89 36.3001C124.014 36.4208 123.055 36.3394 122.013 36.0556C120.933 35.7613 120.039 35.3384 119.332 34.7867C118.629 34.2221 118.098 33.5593 117.739 32.7981C117.383 32.0241 117.196 31.1647 117.177 30.2198C117.157 29.2749 117.293 28.2686 117.584 27.2008C117.969 25.7857 118.537 24.6137 119.288 23.6849C120.038 22.7561 120.963 22.1237 122.064 21.7876C123.177 21.4551 124.454 21.485 125.895 21.8773C127.271 22.2522 128.349 22.8633 129.127 23.7109C129.908 24.5455 130.391 25.5615 130.577 26.759C130.778 27.947 130.685 29.255 130.296 30.683ZM119.412 27.7193C119.097 28.8771 118.986 29.918 119.08 30.8418C119.174 31.7656 119.494 32.5437 120.04 33.1761C120.6 33.8121 121.394 34.2702 122.423 34.5504C123.465 34.8342 124.376 34.8402 125.154 34.5686C125.946 34.3005 126.616 33.7922 127.166 33.0435C127.715 32.2949 128.147 31.3417 128.463 30.1838C128.935 28.4471 128.945 26.9917 128.491 25.8178C128.04 24.631 127.036 23.8257 125.48 23.4018C124.438 23.118 123.514 23.1085 122.71 23.3731C121.922 23.6283 121.253 24.1302 120.704 24.8789C120.158 25.6147 119.727 26.5615 119.412 27.7193Z" fill="#1D1D1D"/>
<path d="M141.646 43.2668L140.018 42.4986L145.438 31.0133L141.35 29.0843C140.953 29.7076 140.532 30.3643 140.089 31.0543C139.651 31.7323 139.21 32.4014 138.766 33.0616C138.333 33.7275 137.921 34.3512 137.529 34.9327C137.136 35.5142 136.781 36.0173 136.463 36.442C135.925 37.176 135.407 37.7722 134.911 38.2308C134.414 38.6894 133.905 38.9724 133.382 39.0797C132.872 39.1927 132.309 39.1041 131.694 38.8138C131.489 38.7171 131.29 38.5934 131.095 38.4427C130.907 38.3098 130.749 38.1762 130.621 38.042L131.261 36.6854C131.365 36.8083 131.49 36.9337 131.637 37.0616C131.788 37.1775 131.961 37.2809 132.154 37.372C132.515 37.5427 132.867 37.5317 133.208 37.339C133.568 37.14 133.91 36.8519 134.236 36.4747C134.567 36.0855 134.877 35.6937 135.166 35.2995C135.404 34.9839 135.707 34.5595 136.077 34.0263C136.452 33.481 136.879 32.842 137.357 32.1095C137.848 31.3826 138.369 30.5894 138.922 29.7299C139.493 28.864 140.075 27.9591 140.668 27.0152L147.74 30.3527L141.646 43.2668Z" fill="#1D1D1D"/>
<path d="M147.494 46.4403L155.635 34.708L157.114 35.7342L153.67 40.6965L155.872 42.2244C156.968 42.9845 157.736 43.7367 158.177 44.4809C158.618 45.2251 158.806 45.948 158.741 46.6496C158.676 47.3511 158.427 48.0141 157.994 48.6385C157.515 49.3286 156.938 49.8209 156.263 50.1153C155.599 50.4173 154.856 50.4941 154.034 50.3457C153.212 50.1972 152.319 49.7886 151.355 49.1197L147.494 46.4403ZM152.085 47.7518C153.038 48.4131 153.878 48.7357 154.603 48.7196C155.336 48.6926 155.957 48.3121 156.466 47.5781C156.816 47.0742 156.973 46.5907 156.937 46.1278C156.92 45.6614 156.727 45.2029 156.358 44.7522C156 44.3091 155.481 43.8519 154.802 43.3806L152.781 41.9782L149.851 46.2012L152.085 47.7518Z" fill="#1D1D1D"/>
<path d="M170.487 66.0191L158.692 53.9996L168.885 43.9978L170.146 45.2826L161.095 54.1637L165.088 58.2321L174.138 49.3509L175.399 50.6357L166.348 59.5168L170.355 63.5994L179.405 54.7183L180.68 56.0173L170.487 66.0191Z" fill="#1D1D1D"/>
<path d="M177.736 76.3551L173.29 69.7283L185.149 61.7724L189.595 68.3991L188.282 69.2794L184.839 64.1474L181.136 66.6322L184.378 71.4653L183.083 72.3344L179.84 67.5014L175.605 70.3428L179.048 75.4748L177.736 76.3551Z" fill="#1D1D1D"/>
</svg>
