<svg width="377" height="312" viewBox="0 0 377 312" fill="none" xmlns="http://www.w3.org/2000/svg">
<path d="M74.774 38.616L51.45 108H23.324L0 38.616H23.128L37.436 86.342L51.646 38.616H74.774ZM124.136 97.514H101.008L97.5781 108H74.7441L100.126 38.616H125.214L150.498 108H127.566L124.136 97.514ZM118.844 81.148L112.572 61.842L106.3 81.148H118.844ZM221.983 108H200.227L177.197 73.112V108H155.441V38.616H177.197L200.227 74.092V38.616H221.983V108ZM260.722 38.616C267.974 38.616 274.311 40.086 279.734 43.026C285.222 45.966 289.436 50.0493 292.376 55.276C295.316 60.5027 296.786 66.448 296.786 73.112C296.786 79.7107 295.316 85.656 292.376 90.948C289.436 96.24 285.222 100.421 279.734 103.492C274.311 106.497 267.974 108 260.722 108H231.812V38.616H260.722ZM258.762 88.596C263.662 88.596 267.549 87.2567 270.424 84.578C273.299 81.8993 274.736 78.0773 274.736 73.112C274.736 68.1467 273.299 64.3247 270.424 61.646C267.549 58.9673 263.662 57.628 258.762 57.628H253.568V88.596H258.762ZM338.452 108.686C331.919 108.686 325.908 107.151 320.42 104.08C314.998 101.009 310.686 96.7627 307.484 91.34C304.283 85.9173 302.682 79.8087 302.682 73.014C302.682 66.2193 304.283 60.1107 307.484 54.688C310.686 49.2653 314.998 45.0513 320.42 42.046C325.908 38.9753 331.919 37.44 338.452 37.44C344.986 37.44 350.964 38.9753 356.386 42.046C361.809 45.0513 366.088 49.2653 369.224 54.688C372.426 60.1107 374.026 66.2193 374.026 73.014C374.026 79.8087 372.426 85.9173 369.224 91.34C366.088 96.7627 361.776 101.009 356.288 104.08C350.866 107.151 344.92 108.686 338.452 108.686ZM338.452 88.4C342.764 88.4 346.096 87.028 348.448 84.284C350.8 81.4747 351.976 77.718 351.976 73.014C351.976 68.2447 350.8 64.488 348.448 61.744C346.096 58.9347 342.764 57.53 338.452 57.53C334.075 57.53 330.71 58.9347 328.358 61.744C326.006 64.488 324.83 68.2447 324.83 73.014C324.83 77.718 326.006 81.4747 328.358 84.284C330.71 87.028 334.075 88.4 338.452 88.4Z" fill="black"/>
<rect y="100" width="377" height="212" fill="black"/>
</svg>
