<svg width="138" height="27" viewBox="0 0 138 27" fill="none" xmlns="http://www.w3.org/2000/svg">
<path d="M27.468 0.512L18.9 26H8.568L0 0.512H8.496L13.752 18.044L18.972 0.512H27.468ZM45.601 22.148H37.105L35.845 26H27.457L36.781 0.512H45.997L55.285 26H46.861L45.601 22.148ZM43.657 16.136L41.353 9.044L39.049 16.136H43.657ZM81.5448 26H73.5528L65.0928 13.184V26H57.1008V0.512H65.0928L73.5528 13.544V0.512H81.5448V26ZM95.7755 0.512C98.4395 0.512 100.767 1.052 102.759 2.132C104.775 3.212 106.323 4.712 107.403 6.632C108.483 8.552 109.023 10.736 109.023 13.184C109.023 15.608 108.483 17.792 107.403 19.736C106.323 21.68 104.775 23.216 102.759 24.344C100.767 25.448 98.4395 26 95.7755 26H85.1555V0.512H95.7755ZM95.0555 18.872C96.8555 18.872 98.2835 18.38 99.3395 17.396C100.395 16.412 100.923 15.008 100.923 13.184C100.923 11.36 100.395 9.956 99.3395 8.972C98.2835 7.988 96.8555 7.496 95.0555 7.496H93.1475V18.872H95.0555ZM124.329 26.252C121.929 26.252 119.721 25.688 117.705 24.56C115.713 23.432 114.129 21.872 112.953 19.88C111.777 17.888 111.189 15.644 111.189 13.148C111.189 10.652 111.777 8.408 112.953 6.416C114.129 4.424 115.713 2.876 117.705 1.772C119.721 0.643999 121.929 0.079999 124.329 0.079999C126.729 0.079999 128.925 0.643999 130.917 1.772C132.909 2.876 134.481 4.424 135.633 6.416C136.809 8.408 137.397 10.652 137.397 13.148C137.397 15.644 136.809 17.888 135.633 19.88C134.481 21.872 132.897 23.432 130.881 24.56C128.889 25.688 126.705 26.252 124.329 26.252ZM124.329 18.8C125.913 18.8 127.137 18.296 128.001 17.288C128.865 16.256 129.297 14.876 129.297 13.148C129.297 11.396 128.865 10.016 128.001 9.008C127.137 7.976 125.913 7.46 124.329 7.46C122.721 7.46 121.485 7.976 120.621 9.008C119.757 10.016 119.325 11.396 119.325 13.148C119.325 14.876 119.757 16.256 120.621 17.288C121.485 18.296 122.721 18.8 124.329 18.8Z" fill="#1D1D1D"/>
</svg>
