<svg width="1596" height="304" viewBox="0 0 1596 304" fill="none" xmlns="http://www.w3.org/2000/svg">
<path d="M318.934 5.056L219.45 301H99.484L0 5.056H98.648L159.676 208.622L220.286 5.056H318.934ZM529.479 256.274H430.831L416.201 301H318.807L427.069 5.056H534.077L641.921 301H544.109L529.479 256.274ZM506.907 186.468L480.155 104.122L453.403 186.468H506.907ZM946.826 301H854.03L755.8 152.192V301H663.004V5.056H755.8L854.03 156.372V5.056H946.826V301ZM1112.06 5.056C1142.99 5.056 1170.02 11.326 1193.15 23.866C1216.56 36.406 1234.53 53.8227 1247.07 76.116C1259.61 98.4093 1265.88 123.768 1265.88 152.192C1265.88 180.337 1259.61 205.696 1247.07 228.268C1234.53 250.84 1216.56 268.675 1193.15 281.772C1170.02 294.591 1142.99 301 1112.06 301H988.75V5.056H1112.06ZM1103.7 218.236C1124.6 218.236 1141.18 212.523 1153.44 201.098C1165.7 189.673 1171.83 173.371 1171.83 152.192C1171.83 131.013 1165.7 114.711 1153.44 103.286C1141.18 91.8607 1124.6 86.148 1103.7 86.148H1081.55V218.236H1103.7ZM1443.6 303.926C1415.74 303.926 1390.1 297.377 1366.69 284.28C1343.56 271.183 1325.17 253.069 1311.51 229.94C1297.86 206.811 1291.03 180.755 1291.03 151.774C1291.03 122.793 1297.86 96.7373 1311.51 73.608C1325.17 50.4787 1343.56 32.5047 1366.69 19.686C1390.1 6.58865 1415.74 0.039988 1443.6 0.039988C1471.47 0.039988 1496.97 6.58865 1520.1 19.686C1543.23 32.5047 1561.48 50.4787 1574.85 73.608C1588.51 96.7373 1595.34 122.793 1595.34 151.774C1595.34 180.755 1588.51 206.811 1574.85 229.94C1561.48 253.069 1543.09 271.183 1519.68 284.28C1496.55 297.377 1471.19 303.926 1443.6 303.926ZM1443.6 217.4C1461.99 217.4 1476.21 211.548 1486.24 199.844C1496.27 187.861 1501.29 171.838 1501.29 151.774C1501.29 131.431 1496.27 115.408 1486.24 103.704C1476.21 91.7213 1461.99 85.73 1443.6 85.73C1424.93 85.73 1410.58 91.7213 1400.55 103.704C1390.52 115.408 1385.5 131.431 1385.5 151.774C1385.5 171.838 1390.52 187.861 1400.55 199.844C1410.58 211.548 1424.93 217.4 1443.6 217.4Z" fill="black"/>
</svg>
